<?xml version="1.0" encoding="utf-8"?>
<!-- Generator: Adobe Illustrator 12.0.0, SVG Export Plug-In . SVG Version: 6.00 Build 51448)  -->
<!DOCTYPE svg PUBLIC "-//W3C//DTD SVG 1.1//EN" "http://www.w3.org/Graphics/SVG/1.1/DTD/svg11.dtd" [
	<!ENTITY ns_svg "http://www.w3.org/2000/svg">
	<!ENTITY ns_xlink "http://www.w3.org/1999/xlink">
]>
<svg  version="1.1" id="Layer_1" xmlns="&ns_svg;" xmlns:xlink="&ns_xlink;" width="493.58" height="370.06"
	 viewBox="0 0 493.58 370.06" style="overflow:visible;enable-background:new 0 0 493.58 370.06;" xml:space="preserve">
<g>
	<path style="fill:#0E703C;stroke:#0E703C;stroke-width:4;" d="M102.18,304.21c2.13-0.92,3.44,0.48,3.93,4.16l0.24,14.41
		c0.09,5.01,0.91,8.96,2.47,11.86c5.26-5.26,9.84-10.73,13.75-16.43c2.57-3.74,6.11-9.63,10.61-17.68
		c3.85-6.86,6.51-10.62,7.99-11.29c0.9-0.43,1.84-0.28,2.82,0.46c1.51,3.25,2.14,7.1,1.88,11.54c-0.17,2.51-0.88,7.98-2.13,16.39
		c-1.08,6.93-1.5,12.24-1.27,15.93l0.63,2.99c0.22,1.09,0.16,2.3-0.19,3.6c-0.62,2.32-2.19,4.03-4.68,5.14l-2.12,0.74l-1.61,0.2
		c-1.09-1.57-1.5-4.68-1.23-9.33c0.15-2.59,0.74-6.87,1.77-12.85c0.97-5.74,1.52-9.98,1.64-12.73c-4.97,3.44-9.25,7.64-12.82,12.58
		l-9.22,12.72c-3.52,4.38-7.33,7.46-11.44,9.26c-3.03,1.32-4.66,1.35-4.89,0.07c-0.16-0.83-0.11-4.52,0.16-11.07
		c0.24-6.02-0.27-11.07-1.55-15.15c-5.34,5.12-9.98,11.13-13.91,18.03c-2.69,4.72-5.66,11.11-8.92,19.15
		c-2.74,6.79-4.68,10.45-5.83,11c-1.01,0.49-2.24-0.25-3.69-2.22c-0.33-0.07-0.31-0.78,0.08-2.12c1.18-4.07,4.1-10.58,8.76-19.51
		c4.22-8.12,8.43-15.39,12.62-21.8C92.75,311.96,98.13,305.94,102.18,304.21z"/>
	<path style="fill:#0E703C;stroke:#0E703C;stroke-width:4;" d="M155.12,330.56c-0.23,0.27-0.79,0.62-1.65,1.05
		c-1.02,0.53-1.69,0.93-2,1.19c-2.4-0.14-3.62-1.01-3.67-2.61c0-0.3,0.41-2.44,1.24-6.43l0.84-4.01c0.27-1.01,1.68-4.46,4.21-10.34
		c0.38-0.38,1.56-1.47,3.56-3.27c1.48,0.98,2.08,2.17,1.78,3.57l-2.95,8.19c-0.59,1.32-1.02,2.47-1.27,3.43
		c-0.35,1.3-0.25,2.53,0.3,3.67c0.55,1.14,0.68,2.24,0.4,3.3C155.73,328.93,155.47,329.68,155.12,330.56z M169.86,283.52
		c-0.26,1.26-0.77,2.23-1.54,2.9c-0.25,0.19-0.88,0.55-1.88,1.07c-1.64,0.84-2.7,0.71-3.16-0.37c-0.32-0.71-0.38-1.61-0.17-2.68
		l0.34-1.75c0.36-1.35,1.84-2.84,4.45-4.47c0.47-0.29,0.77-0.46,0.9-0.52c1.47-0.63,2.12,0.03,1.96,1.97
		C170.58,280.52,170.28,281.8,169.86,283.52z"/>
	<path style="fill:#0E703C;stroke:#0E703C;stroke-width:4;" d="M198.25,308.34c-0.41,1.61-1.17,3.21-2.25,4.78
		c-1.27,1.82-2.66,3.07-4.15,3.72c-1.18,0.52-2.12-0.82-2.82-4.02l-2.01-8.95c-1.08-3.09-2.6-4.2-4.58-3.34
		c-2.12,0.92-4.17,3.37-6.17,7.33c-1.15,2.42-2.93,6.05-5.33,10.92c-2.1,4.02-4.24,6.5-6.41,7.46c-2.54,1.11-3.21-0.57-2.02-5.05
		c0.1-0.39,0.27-0.96,0.52-1.73c0.24-0.76,0.42-1.34,0.52-1.72c0.92-3.46,2.5-7.83,4.73-13.1c3.3-7.82,6.18-12.26,8.64-13.32
		c1.25-0.54,1.86-0.12,1.81,1.26c-0.08,0.76-0.16,1.88-0.23,3.36c0.93-1.12,2.38-2.41,4.35-3.86c1.57-1.15,2.67-1.86,3.3-2.13
		c4.03-1.75,7.6,2.32,10.74,12.15C198.01,305.45,198.46,307.53,198.25,308.34z"/>
	<path style="fill:#0E703C;stroke:#0E703C;stroke-width:4;" d="M210.41,306.29c-0.23,0.27-0.78,0.62-1.65,1.04
		c-1.02,0.53-1.68,0.93-1.99,1.19c-2.42-0.11-3.67-0.96-3.76-2.52c-0.01-0.29,0.37-2.39,1.12-6.31l0.76-3.94
		c0.26-0.99,1.6-4.39,4.03-10.17c0.37-0.37,1.55-1.45,3.52-3.24c1.52,0.94,2.14,2.1,1.87,3.48l-2.81,8.05
		c-0.57,1.3-0.97,2.42-1.21,3.37c-0.32,1.28-0.2,2.48,0.38,3.59c0.58,1.12,0.74,2.19,0.47,3.23
		C211,304.69,210.75,305.43,210.41,306.29z M224.3,260.09c-0.23,1.24-0.73,2.19-1.5,2.86c-0.25,0.19-0.87,0.55-1.88,1.06
		c-1.64,0.84-2.71,0.72-3.19-0.33c-0.34-0.7-0.42-1.57-0.23-2.62l0.31-1.72c0.33-1.33,1.8-2.8,4.39-4.42
		c0.47-0.29,0.77-0.46,0.9-0.51c1.47-0.63,2.14,0.01,2.02,1.92C224.96,257.15,224.68,258.41,224.3,260.09z"/>
	<path style="fill:#0E703C;stroke:#0E703C;stroke-width:4;" d="M236.75,285.94c0,0.34-0.05,0.69-0.14,1.07
		c-0.65,2.63-3.02,5.95-7.12,9.97c-3.79,3.72-6.91,6.12-9.35,7.19c-0.46,0.2-0.83,0.32-1.12,0.37c-0.75,0.24-1.5,0.49-2.24,0.74
		c-0.85,0.17-1.33-0.01-1.44-0.54c-0.1-0.41,0.36-1.18,1.37-2.33c0.85-0.98,1.59-1.7,2.23-2.15l-0.13,0.06l0.07-0.03
		c0.18-0.08,0.54-0.23,1.08-0.47c2.35-0.86,5.6-3.73,9.75-8.61c0.16-0.15,0.27-0.35,0.32-0.58c0.11-0.42-0.96-2.04-3.18-4.87
		c-2.22-2.84-3.09-5.26-2.63-7.27c0.49-2.27,1.85-4.69,4.1-7.26c2.24-2.57,4.46-4.35,6.66-5.34c1.27-0.59,2.25-0.56,2.95,0.08
		c0.7,0.65,0.78,1.65,0.25,3.02c-0.4,0.97-1.12,1.68-2.15,2.13c-0.36,0.16-0.88,0.34-1.58,0.55c-0.7,0.21-1.22,0.4-1.58,0.55
		c-1.17,0.51-2.04,1.26-2.61,2.26c-0.38,1.85,0.58,4.01,2.9,6.49C235.58,283.52,236.78,285.17,236.75,285.94z"/>
	<path style="fill:#0E703C;stroke:#0E703C;stroke-width:4;" d="M281.6,246.73c0.14,0.77,0.12,1.55-0.07,2.34
		c-0.52,2.22-2.18,3.94-4.96,5.14c-1.12,0.49-3.05,1.04-5.77,1.66c-2.72,0.62-4.64,1.17-5.76,1.65c-1.43,0.62-2.28,1.05-2.54,1.29
		c-0.6,0.46-1.04,1.31-1.33,2.52c-0.64,2.65-1.3,6.66-1.99,12c-0.83,6.66,0.32,10.73,0.12,9.82c0,0.01-0.66,1.78-1.08,2.22
		c-1.52,1.61-3.3,2.57-4.92,3.29c-1.63,0.72-2.2-1.14-1.69-5.58c0.17-1.54,1.01-6.08,2.52-13.63c1.07-5.39,1.42-8.49,1.05-9.3
		c-0.23-0.4-2.68,0.47-7.38,2.63c-1.18,0.55-2.08,0.98-2.72,1.27c-0.63,0.3-0.84,0.39-0.61,0.3c-0.89,0.39-1.49,0.27-1.77-0.36
		c-0.23-1.32-0.34-2.03-0.31-2.13c0.43-1.74,3.12-3.99,8.08-6.76c1.88-0.98,4.68-2.46,8.4-4.44c0.25-1.03,0.59-2.57,1.03-4.61
		c0.44-2.05,0.78-3.59,1.03-4.62c1.27-5.23,3.1-8.36,5.51-9.39c0.63-0.27,1.2-0.2,1.72,0.21c0.52,0.4,0.7,0.93,0.55,1.58
		l-3.42,14.19c0.95,0.88,3.59,0.66,7.94-0.67C277.58,246.01,280.37,245.8,281.6,246.73z"/>
	<path style="fill:#0E703C;stroke:#0E703C;stroke-width:4;" d="M306.7,242.56c-0.61,0.72-1.54,1.35-2.8,1.9
		c-0.99,0.43-2.4,0.88-4.25,1.35c-1.85,0.47-3.24,0.91-4.18,1.31c-5.39,2.34-9.49,7.82-12.32,16.45c-1.27,3.88-1.98,5.96-2.13,6.22
		c-0.73,1.36-2.05,3.18-3.96,5.48l-2.04,0.89c-0.43-1.1-0.63-3.2-0.58-6.29c0.06-2.98,0.3-5.37,0.73-7.18
		c0.33-1.39,0.61-2.3,0.83-2.73c0.38-0.75,1.04-1.33,1.98-1.74c0.36-0.15,0.71-0.14,1.05,0.04c0.34,0.18,0.53,0.27,0.58,0.25
		c3.19-5.17,5.61-8.68,7.25-10.51c2.58-2.95,5.73-5.23,9.45-6.84c1.61-0.7,3.55-1.06,5.82-1.09
		C305.08,240.03,306.61,240.86,306.7,242.56z"/>
	<path style="fill:#0E703C;stroke:#0E703C;stroke-width:4;" d="M312.1,261.67c-0.22,0.26-0.77,0.61-1.64,1.03
		c-1.02,0.53-1.68,0.92-1.98,1.18c-2.47-0.07-3.77-0.86-3.92-2.37c-0.02-0.28,0.28-2.3,0.89-6.08l0.61-3.8
		c0.22-0.96,1.46-4.25,3.7-9.85c0.37-0.37,1.52-1.42,3.45-3.17c1.58,0.88,2.26,1.99,2.04,3.32l-2.54,7.78
		c-0.53,1.26-0.9,2.35-1.1,3.26c-0.28,1.24-0.11,2.38,0.53,3.45c0.63,1.06,0.83,2.09,0.61,3.1
		C312.64,260.12,312.41,260.84,312.1,261.67z M324.41,217c-0.19,1.2-0.66,2.12-1.41,2.77c-0.24,0.19-0.87,0.54-1.87,1.05
		c-1.64,0.83-2.72,0.74-3.26-0.27c-0.37-0.67-0.48-1.51-0.33-2.52l0.25-1.66c0.29-1.28,1.72-2.72,4.29-4.32
		c0.46-0.28,0.76-0.45,0.9-0.51c1.47-0.63,2.18-0.03,2.13,1.81C324.96,214.17,324.73,215.38,324.41,217z"/>
	<path style="fill:#0E703C;stroke:#0E703C;stroke-width:4;" d="M341.27,246.24c-0.14,0.64-1.32,1.73-3.54,3.27
		c-1.79,1.23-3,1.99-3.63,2.27c-4.94,2.16-8.71,2.75-11.3,1.75c-2.89-1.12-3.79-4.08-2.72-8.88c0.75-3.33,2.75-7.4,6.01-12.2
		c3.85-5.67,7.75-9.35,11.68-11.05c2.28-0.99,4.01-1.09,5.2-0.31c1.19,0.78,1.53,2.32,1.03,4.63c-0.53,2.45-2.11,5.39-4.73,8.83
		c-2.62,3.44-5.13,5.69-7.52,6.72c-0.36,0.16-0.62,0.18-0.77,0.06c-0.16-0.12-0.33-0.14-0.51-0.06c-0.58,0.25-2.14,1.3-4.67,3.15
		c0.23,2.09,1.4,3.26,3.51,3.49c1.84,0.19,4.11-0.32,6.82-1.5c0.23-0.1,0.56-0.3,0.99-0.6c0.43-0.3,0.76-0.49,0.99-0.59
		c0.72-0.32,1.46-0.4,2.23-0.24C341.11,245.15,341.42,245.57,341.27,246.24z M337.31,230.13l0.74-3.34
		c-0.09,0.04-0.3,0.07-0.63,0.08c-0.33,0.02-0.63,0.09-0.9,0.2c-1.25,0.54-2.94,2.14-5.06,4.79c-1.84,2.28-3.06,4.05-3.67,5.3
		c0.73,0.38,1.49,0.4,2.3,0.05c0.36-0.16,1.55-1.13,3.56-2.91C335.92,232.29,337.14,230.9,337.31,230.13z"/>
	<path style="fill:#0E703C;stroke:#0E703C;stroke-width:4;" d="M364.84,229.97c0.02,0.32-0.01,0.66-0.09,1.02
		c-0.53,2.51-2.79,5.73-6.78,9.63c-3.69,3.62-6.75,5.97-9.2,7.04c-0.45,0.2-0.83,0.32-1.13,0.38c-0.75,0.25-1.5,0.5-2.25,0.75
		c-0.86,0.18-1.36,0.02-1.5-0.48c-0.13-0.38,0.3-1.13,1.28-2.24c0.82-0.96,1.54-1.65,2.17-2.09l-0.13,0.06l0.06-0.03
		c0.18-0.08,0.54-0.24,1.09-0.48c2.35-0.87,5.53-3.67,9.53-8.4c0.16-0.15,0.26-0.34,0.31-0.56c0.08-0.4-1.08-1.93-3.5-4.57
		c-2.4-2.65-3.41-4.94-3.04-6.86c0.39-2.17,1.66-4.5,3.82-7c2.16-2.49,4.34-4.23,6.54-5.23c1.26-0.58,2.27-0.58,3.02,0.02
		c0.75,0.6,0.88,1.55,0.4,2.87c-0.36,0.93-1.06,1.62-2.09,2.07c-0.36,0.16-0.89,0.34-1.59,0.56c-0.7,0.22-1.22,0.4-1.58,0.56
		c-1.17,0.51-2.01,1.24-2.55,2.21c-0.29,1.77,0.8,3.8,3.28,6.11C363.52,227.69,364.83,229.24,364.84,229.97z"/>
</g>
<path style="fill:#231F20;" d="M267.66,99.37c10.16-34.03,17.44-47.33,17.5-47.46l9.34-16.62l-70.59,32.49l4.46-14.04l-63.45,31.93
	l-3.58,11.23l-53.52,25.14l-0.78,1.17c-1.25,1.08-3.96,4.81-13.35,17.83c-16.35,22.69-46.8,64.9-74.83,96.74L0,258.27l71.46-29.42
	c-8.42,20.71-26.1,62.98-36.42,79.62l-11.01,17.65L130.97,276c7.96-3.49,15.32-8.2,21.82-13.96c0.61-0.56,1.2-1.14,1.78-1.71
	c2.28,0.31,4.59,0.31,6.87,0c0.61-0.1,1.22-0.21,1.83-0.34c2.76-0.64,5.45-1.57,8.02-2.76l185.03-80.92l0.95-1.33
	c0.72-1.01,71.95-101.56,117.04-152.83L493.58,0L267.66,99.37z"/>
<path style="fill:#94C63B;" d="M261.58,106.46c11.62-40.96,20.14-56.27,20.22-56.43l3.56-6.29l-67.77,31.19l4.33-13.64l-53.83,27.08
	l-3.59,11.33l-54.07,25.36l-0.35,0.55c-0.47,0.69-45.9,68.57-88.4,114.76l-7.09,7.71l63.84-26.31
	c-6.61,16.64-28.08,69.34-40.11,88.71l-4.14,6.74l95.06-44.7c7.6-3.32,14.64-7.81,20.85-13.3c1.08-0.98,2.09-2.01,3.03-3.03
	c2.52,0.56,5.12,0.64,7.67,0.26c0.58-0.08,1.11-0.18,1.61-0.29c2.5-0.6,4.93-1.45,7.27-2.55l183.98-80.43l0.35-0.5
	c0.72-1.01,72.18-101.81,117.3-153.16l7.3-8.29L261.58,106.46z"/>
<path style="fill:#231F20;" d="M467.56,13.69l-202.33,88.55c10.78-36.9,18.52-50.88,18.6-51.02l7.03-12.58l-13.03,5.98L221.4,70.6
	l1.06-3.35l3.34-10.52l-9.87,4.97l-48,24.16l-1.75,0.88l-0.6,1.86l-2.98,9.42l-52.58,24.67l-1.17,0.55l-0.72,1.07
	c-1.61,0-46.99,67.72-88.24,114.49L5.71,254.24l19.38-8.02L74.17,226c-8.17,20.42-26.95,65.73-37.83,83.2l-8.28,13.34l14.21-6.68
	l88.05-41.33c7.81-3.42,15.05-8.04,21.43-13.7c0.79-0.72,1.61-1.46,2.26-2.21c2.39,0.37,4.81,0.37,7.19,0
	c0.58-0.08,1.16-0.19,1.72-0.32c2.64-0.63,5.21-1.53,7.67-2.68l0.18-0.08h0.13l183.18-80.07l1.11-0.53l0.71-1.01
	c0.72-1.01,72.1-101.73,117.12-152.96L487.6,4.38L467.56,13.69z M352.13,171.32l-183.31,80.13c-2.19,1.03-4.48,1.83-6.83,2.4
	c-0.45,0.1-0.91,0.18-1.38,0.26c-2.59,0.39-5.24,0.23-7.77-0.47l-0.41-0.1c-1.2,1.38-2.47,2.7-3.82,3.93
	c-6.05,5.3-12.89,9.62-20.26,12.83l-88.05,41.41c14.57-23.46,42.37-94.18,42.37-94.18L23.4,241.95C66.45,195.09,112,126.9,112,126.9
	l54.41-25.53l3.66-11.36l47.97-24.16l-4.25,13.38l65.99-30.37h0.02c0,0-9.23,16.27-21.8,61.82l211.58-92.71
	C423.84,69.98,352.13,171.32,352.13,171.32z"/>
<path style="fill:#F4F3F4;" d="M250.29,118.49c11.71-42.6,19.07-60.61,19.07-60.61l-64.17,29.68l4.09-12.83l-33.97,17.1l-3.64,11.46
	l-55.22,25.93h0.02c0,0-53,76.48-71.64,96.12l47.81-19.97c0,0-23.46,66.47-38.42,91.78l72.41-33.91c6.85-3,13.21-7.04,18.83-11.97
	c2.28-2.09,4.32-4.44,6.06-7c0.94,0.82,2.03,1.45,3.21,1.84h0.24c4.64,1.27,8.41-0.33,12.18-1.94l181.9-79.46
	C425.45,54.47,450.46,31.01,450.46,31.01L250.29,118.49z"/>
<path style="fill:#231F20;" d="M371.04,161.67c-2.86,0-5.18,2.32-5.18,5.18c0,2.86,2.32,5.18,5.18,5.18c2.86,0,5.18-2.32,5.18-5.18
	c0,0,0-0.01,0-0.02c0.08-2.77-2.1-5.08-4.87-5.16C371.25,161.67,371.14,161.67,371.04,161.67z M371.04,170.85
	c-2.21,0-4.01-1.79-4.01-4.01c0-2.21,1.8-4.01,4.01-4.01c2.21,0,4,1.8,4,4.01c0,2.21-1.8,4-4.01,4l0,0L371.04,170.85z"/>
<path style="fill:#231F20;" d="M371.99,167.19c0.71,0.04,1.32-0.52,1.36-1.24c0-0.08,0-0.16-0.01-0.24c0-1.25-0.86-1.61-2.28-1.61
	h-2.09v5.6h1.2v-2.37h0.55l1.3,2.37h1.39L371.99,167.19z M371.2,166.34h-1.03v-1.35h0.8c0.47,0,1.11,0,1.11,0.64
	C372.08,166.28,371.75,166.34,371.2,166.34z"/>
<g>
	<g id="XMLID_1_">
		<g>
			<path style="fill:#EA1938;" d="M214.68,143.14c1.72-0.98,5.12-1.88,8.18-2.68c-3.83,10.73-9.24,20.48-10.39,29.26
				c-4.18-2.81-6.17-3.11-9.79-0.97c-4.17,2.47-9.68,7.08-11.3,11.5l-6.31,22.6c0,0-4.65,20.73-7.29,27.03l-26.13,12.79
				c2.34-5.33,3.78-9.99,6.96-21.57l9.88-33.74c3.41-11.11,4.09-16.18,2.89-19.26l19.21-11.05c0.01,0.01,0.01,0.03,0.01,0.04
				l4.47-2.54l-0.13,8.32C200.51,154.02,207.16,147.41,214.68,143.14z"/>
		</g>
		<g>
		</g>
	</g>
	<path style="fill:#0E703C;" d="M181.25,96.49l17.09-8.6l-3.9,12.29l13.45-6.29l-3.51,11.08l-13.43,6.29l-9.48,29.87
		c-1.14,3.63-1.11,4.41,1.91,3.02l5.94-2.78c2.53-1.27,4.82-2.97,6.77-5.02l-5.28,13.75l-21.16,9.9c-5.36,2.5-8.86,1.06-4.38-13.03
		l8.83-27.84l-5.23,2.45l3.51-11.08l5.23-2.46L181.25,96.49z"/>
	<path style="fill:#0E703C;" d="M230.76,83.12l-1.38,5.68h0.14c1.7-3.21,3.72-6.77,6.25-7.92l13.65-6.42
		c7.94-3.71,8.71,2.71,4.7,15.35l-7.32,23.01c-2.47,7.83-2.34,9.72-2.28,12.15l-20.59,9.63c2.59-4.36,4.6-9.04,5.98-13.93
		l8.82-27.84c1.11-3.5,0.77-4.36-1.3-3.38l-6.15,2.87c-2.09,0.96-3.21,2.5-4.27,6l-8.82,27.82c-2.48,7.83-2.35,9.72-2.28,12.15
		l-20.59,9.63c2.59-4.35,4.6-9.01,5.98-13.88l9.71-30.61c2.49-7.83,2.36-9.72,2.26-12.13L230.76,83.12z"/>
	<path style="fill:#0E703C;" d="M92.17,186.12c-1.97,2.87-4.6,6.96-5.68,9.01c-0.88,1.51-1.54,3.13-1.97,4.82l-15.95,7.46
		c4.99-5.66,9.61-11.62,13.85-17.86l37.64-54.43l17.44-8.17l-13.86,43.22h0.15l27.02-49.43l17.65-8.25l-13.51,42.44
		c-2.79,8.7-2.92,10-3.21,13.62l-19.91,9.29c0.96-1.78,1.7-3.04,2.57-4.97c1.03-2.37,1.9-4.8,2.62-7.29l7.62-24.5h-0.15
		l-22.67,41.39l-19.38,9.05l11.52-36.16h-0.15L92.17,186.12z"/>
	<path style="fill:#EA1938;" d="M96.75,216.37c4.39-10.76,5.52-15.75,4.6-18.93l49.74-22.98c14.44-6.76,16.36,0.27,8.42,23.81
		l-11.23,36.8c-3.3,10.89-11.67,18.2-26.12,24.95l-52.73,24.71c2.81-5.12,4.65-9.62,8.86-20.86L96.75,216.37z M104.92,251.95
		l13.51-6.32c4.25-1.97,5.44-3.91,8.02-11.68l9.62-28.37c2.62-7.78,2.54-9.13-1.71-7.12l-11.23,5.05L104.92,251.95z"/>
	<path style="fill:#EA1938;" d="M235.9,177.11l-2.5,7.89c-1.83,6.03-1.03,7.8,3,5.9l24.07-11.23c4.73-2.09,8.98-5.12,12.5-8.9
		l-8.26,20.85l-49.94,23.36c-11.23,5.26-11.96-1.12-6.42-18.68l10.62-33.26c5.57-17.54,11.23-26.91,22.46-32.18l38.14-17.83
		c11.23-5.28,11.95,1.11,6.42,18.68l-8.17,25.78L235.9,177.11z M258.67,152.43l3.61-11.44c1.61-4.81,1.32-6.42-1.46-5.12
		l-10.31,4.81c-2.76,1.3-4.23,3.66-5.78,8.49l-3.63,11.47L258.67,152.43z"/>
	<path style="fill:#EA1938;" d="M394.71,74.43c3.03-4.32,7.04-10.46,8.68-13.51c1.34-2.25,2.35-4.67,3-7.2l24.93-11.65
		c-7.67,8.5-14.8,17.48-21.32,26.89l-56.04,80.88l-31.22,14.58l20.66-64.25l-0.26,0.11l-43.96,75.23l-26.25,12.27l20.11-63.07
		c4.15-12.93,4.33-14.84,4.81-20.25l29.54-13.8c-1.43,2.66-2.52,4.54-3.81,7.43c-1.54,3.51-2.84,7.12-3.9,10.8l-11.34,36.42
		l0.22-0.09l36.9-62.96l34.67-16.21l-17.24,53.72l0.27-0.11L394.71,74.43z"/>
</g>
<g>
	<path style="fill:#94C63B;" d="M101.43,300.71c2.13-0.92,3.44,0.48,3.93,4.16l0.24,14.41c0.09,5.01,0.91,8.96,2.47,11.86
		c5.26-5.26,9.84-10.73,13.75-16.43c2.57-3.74,6.11-9.63,10.61-17.68c3.85-6.86,6.51-10.62,7.99-11.29c0.9-0.43,1.84-0.28,2.82,0.46
		c1.51,3.25,2.14,7.1,1.88,11.54c-0.17,2.51-0.88,7.98-2.13,16.39c-1.08,6.93-1.5,12.24-1.27,15.93l0.63,2.99
		c0.22,1.09,0.16,2.3-0.19,3.6c-0.62,2.32-2.19,4.03-4.68,5.14l-2.12,0.74l-1.61,0.2c-1.09-1.57-1.5-4.68-1.23-9.33
		c0.15-2.59,0.74-6.87,1.77-12.85c0.97-5.74,1.52-9.98,1.64-12.73c-4.97,3.44-9.25,7.64-12.82,12.58l-9.22,12.72
		c-3.52,4.38-7.33,7.46-11.44,9.26c-3.03,1.32-4.66,1.35-4.89,0.07c-0.16-0.83-0.11-4.52,0.16-11.07
		c0.24-6.02-0.27-11.07-1.55-15.15c-5.34,5.12-9.98,11.13-13.91,18.03c-2.69,4.72-5.66,11.11-8.92,19.15
		c-2.74,6.79-4.68,10.45-5.83,11c-1.01,0.49-2.24-0.25-3.69-2.22c-0.33-0.07-0.31-0.78,0.08-2.12c1.18-4.07,4.1-10.58,8.76-19.51
		c4.22-8.12,8.43-15.39,12.62-21.8C92,308.46,97.38,302.44,101.43,300.71z"/>
	<path style="fill:#94C63B;" d="M154.37,327.06c-0.23,0.27-0.79,0.62-1.65,1.05c-1.02,0.53-1.69,0.93-2,1.19
		c-2.4-0.14-3.62-1.01-3.67-2.61c0-0.3,0.41-2.44,1.24-6.43l0.84-4.01c0.27-1.01,1.68-4.46,4.21-10.34
		c0.38-0.38,1.56-1.47,3.56-3.27c1.48,0.98,2.08,2.17,1.78,3.57l-2.95,8.19c-0.59,1.32-1.02,2.47-1.27,3.43
		c-0.35,1.3-0.25,2.53,0.3,3.67c0.55,1.14,0.68,2.24,0.4,3.3C154.98,325.43,154.72,326.18,154.37,327.06z M169.11,280.02
		c-0.26,1.26-0.77,2.23-1.54,2.9c-0.25,0.19-0.88,0.55-1.88,1.07c-1.64,0.84-2.7,0.71-3.16-0.37c-0.32-0.71-0.38-1.61-0.17-2.68
		l0.34-1.75c0.36-1.35,1.84-2.84,4.45-4.47c0.47-0.29,0.77-0.46,0.9-0.52c1.47-0.63,2.12,0.03,1.96,1.97
		C169.83,277.02,169.53,278.3,169.11,280.02z"/>
	<path style="fill:#94C63B;" d="M197.5,304.84c-0.41,1.61-1.17,3.21-2.25,4.78c-1.27,1.82-2.66,3.07-4.15,3.72
		c-1.18,0.52-2.12-0.82-2.82-4.02l-2.01-8.95c-1.08-3.09-2.6-4.2-4.58-3.34c-2.12,0.92-4.17,3.37-6.17,7.33
		c-1.15,2.42-2.93,6.05-5.33,10.92c-2.1,4.02-4.24,6.5-6.41,7.46c-2.54,1.11-3.21-0.57-2.02-5.05c0.1-0.39,0.27-0.96,0.52-1.73
		c0.24-0.76,0.42-1.34,0.52-1.72c0.92-3.46,2.5-7.83,4.73-13.1c3.3-7.82,6.18-12.26,8.64-13.32c1.25-0.54,1.86-0.12,1.81,1.26
		c-0.08,0.76-0.16,1.88-0.23,3.36c0.93-1.12,2.38-2.41,4.35-3.86c1.57-1.15,2.67-1.86,3.3-2.13c4.03-1.75,7.6,2.32,10.74,12.15
		C197.26,301.95,197.71,304.03,197.5,304.84z"/>
	<path style="fill:#94C63B;" d="M209.66,302.79c-0.23,0.27-0.78,0.62-1.65,1.04c-1.02,0.53-1.68,0.93-1.99,1.19
		c-2.42-0.11-3.67-0.96-3.76-2.52c-0.01-0.29,0.37-2.39,1.12-6.31l0.76-3.94c0.26-0.99,1.6-4.39,4.03-10.17
		c0.37-0.37,1.55-1.45,3.52-3.24c1.52,0.94,2.14,2.1,1.87,3.48l-2.81,8.05c-0.57,1.3-0.97,2.42-1.21,3.37
		c-0.32,1.28-0.2,2.48,0.38,3.59c0.58,1.12,0.74,2.19,0.47,3.23C210.25,301.19,210,301.93,209.66,302.79z M223.55,256.59
		c-0.23,1.24-0.73,2.19-1.5,2.86c-0.25,0.19-0.87,0.55-1.88,1.06c-1.64,0.84-2.71,0.72-3.19-0.33c-0.34-0.7-0.42-1.57-0.23-2.62
		l0.31-1.72c0.33-1.33,1.8-2.8,4.39-4.42c0.47-0.29,0.77-0.46,0.9-0.51c1.47-0.63,2.14,0.01,2.02,1.92
		C224.21,253.65,223.93,254.91,223.55,256.59z"/>
	<path style="fill:#94C63B;" d="M236,282.44c0,0.34-0.05,0.69-0.14,1.07c-0.65,2.63-3.02,5.95-7.12,9.97
		c-3.79,3.72-6.91,6.12-9.35,7.19c-0.46,0.2-0.83,0.32-1.12,0.37c-0.75,0.24-1.5,0.49-2.24,0.74c-0.85,0.17-1.33-0.01-1.44-0.54
		c-0.1-0.41,0.36-1.18,1.37-2.33c0.85-0.98,1.59-1.7,2.23-2.15l-0.13,0.06l0.07-0.03c0.18-0.08,0.54-0.23,1.08-0.47
		c2.35-0.86,5.6-3.73,9.75-8.61c0.16-0.15,0.27-0.35,0.32-0.58c0.11-0.42-0.96-2.04-3.18-4.87c-2.22-2.84-3.09-5.26-2.63-7.27
		c0.49-2.27,1.85-4.69,4.1-7.26c2.24-2.57,4.46-4.35,6.66-5.34c1.27-0.59,2.25-0.56,2.95,0.08c0.7,0.65,0.78,1.65,0.25,3.02
		c-0.4,0.97-1.12,1.68-2.15,2.13c-0.36,0.16-0.88,0.34-1.58,0.55c-0.7,0.21-1.22,0.4-1.58,0.55c-1.17,0.51-2.04,1.26-2.61,2.26
		c-0.38,1.85,0.58,4.01,2.9,6.49C234.83,280.02,236.03,281.67,236,282.44z"/>
	<path style="fill:#94C63B;" d="M280.85,243.23c0.14,0.77,0.12,1.55-0.07,2.34c-0.52,2.22-2.18,3.94-4.96,5.14
		c-1.12,0.49-3.05,1.04-5.77,1.66c-2.72,0.62-4.64,1.17-5.76,1.65c-1.43,0.62-2.28,1.05-2.54,1.29c-0.6,0.46-1.04,1.31-1.33,2.52
		c-0.64,2.65-1.3,6.66-1.99,12c-0.83,6.66,0.38,10.27,0.38,10.52c0-0.78-0.67,1.17-1.33,1.53c-1.95,1.05-3.3,2.57-4.92,3.29
		c-1.63,0.72-2.2-1.14-1.69-5.58c0.17-1.54,1.01-6.08,2.52-13.63c1.07-5.39,1.42-8.49,1.05-9.3c-0.23-0.4-2.68,0.47-7.38,2.63
		c-1.18,0.55-2.08,0.98-2.72,1.27c-0.63,0.3-0.84,0.39-0.61,0.3c-0.89,0.39-1.49,0.27-1.77-0.36c-0.23-1.32-0.34-2.03-0.31-2.13
		c0.43-1.74,3.12-3.99,8.08-6.76c1.88-0.98,4.68-2.46,8.4-4.44c0.25-1.03,0.59-2.57,1.03-4.61c0.44-2.05,0.78-3.59,1.03-4.62
		c1.27-5.23,3.1-8.36,5.51-9.39c0.63-0.27,1.2-0.2,1.72,0.21c0.52,0.4,0.7,0.93,0.55,1.58l-3.42,14.19
		c0.95,0.88,3.59,0.66,7.94-0.67C276.83,242.51,279.62,242.3,280.85,243.23z"/>
	<path style="fill:#94C63B;" d="M305.95,239.06c-0.61,0.72-1.54,1.35-2.8,1.9c-0.99,0.43-2.4,0.88-4.25,1.35
		c-1.85,0.47-3.24,0.91-4.18,1.31c-5.39,2.34-9.49,7.82-12.32,16.45c-1.27,3.88-1.98,5.96-2.13,6.22c-0.73,1.36-2.05,3.18-3.96,5.48
		l-2.04,0.89c-0.43-1.1-0.63-3.2-0.58-6.29c0.06-2.98,0.3-5.37,0.73-7.18c0.33-1.39,0.61-2.3,0.83-2.73
		c0.38-0.75,1.04-1.33,1.98-1.74c0.36-0.15,0.71-0.14,1.05,0.04c0.34,0.18,0.53,0.27,0.58,0.25c3.19-5.17,5.61-8.68,7.25-10.51
		c2.58-2.95,5.73-5.23,9.45-6.84c1.61-0.7,3.55-1.06,5.82-1.09C304.33,236.53,305.86,237.36,305.95,239.06z"/>
	<path style="fill:#94C63B;" d="M311.35,258.17c-0.22,0.26-0.77,0.61-1.64,1.03c-1.02,0.53-1.68,0.92-1.98,1.18
		c-2.47-0.07-3.77-0.86-3.92-2.37c-0.02-0.28,0.28-2.3,0.89-6.08l0.61-3.8c0.22-0.96,1.46-4.25,3.7-9.85
		c0.37-0.37,1.52-1.42,3.45-3.17c1.58,0.88,2.26,1.99,2.04,3.32l-2.54,7.78c-0.53,1.26-0.9,2.35-1.1,3.26
		c-0.28,1.24-0.11,2.38,0.53,3.45c0.63,1.06,0.83,2.09,0.61,3.1C311.89,256.62,311.66,257.34,311.35,258.17z M323.66,213.5
		c-0.19,1.2-0.66,2.12-1.41,2.77c-0.24,0.19-0.87,0.54-1.87,1.05c-1.64,0.83-2.72,0.74-3.26-0.27c-0.37-0.67-0.48-1.51-0.33-2.52
		l0.25-1.66c0.29-1.28,1.72-2.72,4.29-4.32c0.46-0.28,0.76-0.45,0.9-0.51c1.47-0.63,2.18-0.03,2.13,1.81
		C324.21,210.67,323.98,211.88,323.66,213.5z"/>
	<path style="fill:#94C63B;" d="M340.52,242.74c-0.14,0.64-1.32,1.73-3.54,3.27c-1.79,1.23-3,1.99-3.63,2.27
		c-4.94,2.16-8.71,2.75-11.3,1.75c-2.89-1.12-3.79-4.08-2.72-8.88c0.75-3.33,2.75-7.4,6.01-12.2c3.85-5.67,7.75-9.35,11.68-11.05
		c2.28-0.99,4.01-1.09,5.2-0.31c1.19,0.78,1.53,2.32,1.03,4.63c-0.53,2.45-2.11,5.39-4.73,8.83c-2.62,3.44-5.13,5.69-7.52,6.72
		c-0.36,0.16-0.62,0.18-0.77,0.06c-0.16-0.12-0.33-0.14-0.51-0.06c-0.58,0.25-2.14,1.3-4.67,3.15c0.23,2.09,1.4,3.26,3.51,3.49
		c1.84,0.19,4.11-0.32,6.82-1.5c0.23-0.1,0.56-0.3,0.99-0.6c0.43-0.3,0.76-0.49,0.99-0.59c0.72-0.32,1.46-0.4,2.23-0.24
		C340.36,241.65,340.67,242.07,340.52,242.74z M336.56,226.63l0.74-3.34c-0.09,0.04-0.3,0.07-0.63,0.08
		c-0.33,0.02-0.63,0.09-0.9,0.2c-1.25,0.54-2.94,2.14-5.06,4.79c-1.84,2.28-3.06,4.05-3.67,5.3c0.73,0.38,1.49,0.4,2.3,0.05
		c0.36-0.16,1.55-1.13,3.56-2.91C335.17,228.79,336.39,227.4,336.56,226.63z"/>
	<path style="fill:#94C63B;" d="M364.09,226.47c0.02,0.32-0.01,0.66-0.09,1.02c-0.53,2.51-2.79,5.73-6.78,9.63
		c-3.69,3.62-6.75,5.97-9.2,7.04c-0.45,0.2-0.83,0.32-1.13,0.38c-0.75,0.25-1.5,0.5-2.25,0.75c-0.86,0.18-1.36,0.02-1.5-0.48
		c-0.13-0.38,0.3-1.13,1.28-2.24c0.82-0.96,1.54-1.65,2.17-2.09l-0.13,0.06l0.06-0.03c0.18-0.08,0.54-0.24,1.09-0.48
		c2.35-0.87,5.53-3.67,9.53-8.4c0.16-0.15,0.26-0.34,0.31-0.56c0.08-0.4-1.08-1.93-3.5-4.57c-2.4-2.65-3.41-4.94-3.04-6.86
		c0.39-2.17,1.66-4.5,3.82-7c2.16-2.49,4.34-4.23,6.54-5.23c1.26-0.58,2.27-0.58,3.02,0.02c0.75,0.6,0.88,1.55,0.4,2.87
		c-0.36,0.93-1.06,1.62-2.09,2.07c-0.36,0.16-0.89,0.34-1.59,0.56c-0.7,0.22-1.22,0.4-1.58,0.56c-1.17,0.51-2.01,1.24-2.55,2.21
		c-0.29,1.77,0.8,3.8,3.28,6.11C362.77,224.19,364.08,225.74,364.09,226.47z"/>
</g>
</svg>
